<svg xmlns="http://www.w3.org/2000/svg" viewBox="0 0 207.31 185.22"><title>logo.full.top</title><g id="Layer_4" data-name="Layer 4"><path d="M1050.48,422.36h32.36c10.85,0,18.35,7.55,18.36,18.51q0,23.7,0,47.4c0,10.66-7.5,18.29-18,18.3q-32.73,0-65.45,0c-10.53,0-17.94-7.59-18-18.31q0-24.06,0-48.12a17.46,17.46,0,0,1,17.41-17.77C1028.3,422.31,1039.39,422.37,1050.48,422.36Zm0,74.8q16.44,0,32.9,0a9.07,9.07,0,0,0,3-.38c3.65-1.29,5.58-4.21,5.58-8.42q0-23.79,0-47.57c0-.49,0-1-.06-1.46a8.06,8.06,0,0,0-7.86-7.52q-33.54,0-67.06,0a8,8,0,0,0-7.91,8c0,16.29,0,32.57,0,48.85a8.5,8.5,0,0,0,8.55,8.55C1028.54,497,1039.51,497.16,1050.48,497.16Z" transform="translate(-946.83 -422.34)"/><path d="M1032.56,464.56c-2.64-2.68-5.11-5.14-7.52-7.67a4.65,4.65,0,0,1-.84-5.68,4.32,4.32,0,0,1,5-2.23,4.73,4.73,0,0,1,2.15,1.17c3.64,3.61,7.25,7.24,10.8,10.93,2.09,2.16,2,4.75-.11,6.92q-5.11,5.24-10.28,10.42c-2.14,2.15-5,2.26-6.85.32s-1.78-4.71.41-6.93C1027.7,469.4,1030.1,467,1032.56,464.56Z" transform="translate(-946.83 -422.34)"/><path d="M1063.85,470.86c2.87,0,5.74,0,8.61,0s4.93,1.93,5,4.6a4.56,4.56,0,0,1-4.73,4.65q-8.78.13-17.57,0a4.5,4.5,0,0,1-4.76-4.77,4.59,4.59,0,0,1,4.88-4.49C1058.11,470.83,1061,470.86,1063.85,470.86Z" transform="translate(-946.83 -422.34)"/></g><g id="Layer_2" data-name="Layer 2"><path d="M950,574.88c1.23-1,2.23-1.93,3-2.63s1.43-1.35,2-1.93a21.59,21.59,0,0,0,1.5-1.76l1.6-2.11c.62-.81,1.36-1.8,2.24-3s2-2.64,3.43-4.4a11.13,11.13,0,0,1,.95-1.15,7.58,7.58,0,0,1,1.17-1,6.53,6.53,0,0,1,1.42-.72,4.94,4.94,0,0,1,1.73-.28,6.82,6.82,0,0,1,2.44.35,3,3,0,0,1,1.25.84,2.08,2.08,0,0,1,.46,1,8.92,8.92,0,0,1,.06.94,3.24,3.24,0,0,1-.62,1.75,18.78,18.78,0,0,1-1.38,1.84c-.51.6-1,1.14-1.44,1.63a3.36,3.36,0,0,0-.77,1.11,10.62,10.62,0,0,0,.15,1.86,15.22,15.22,0,0,0,.39,1.65q.26.8.51,1.71c.18.6.35,1.3.51,2.09a24.31,24.31,0,0,1,.4,2.73q.15,1.56.15,3.66a19.55,19.55,0,0,1,2.55-1.43l2.85-1.34c1-.46,2-1,3-1.53a24.73,24.73,0,0,0,3.14-2l0,7.38a31.18,31.18,0,0,1-4.73,3,46.62,46.62,0,0,1-5.63,2.44,42.75,42.75,0,0,1-6,1.66,28.56,28.56,0,0,1-5.71.61,17.32,17.32,0,0,1-3.63-.36,9.36,9.36,0,0,1-3-1.14,6.19,6.19,0,0,1-2-2,6.77,6.77,0,0,1-1-3,7.38,7.38,0,0,1-.91.13l-.87,0q-.52,0-1,0a1.68,1.68,0,0,1-.79-.25,1.41,1.41,0,0,1-.52-.69,3.57,3.57,0,0,1-.2-1.37,2.91,2.91,0,0,1,.39-1.47,6.11,6.11,0,0,1,.93-1.2,9.6,9.6,0,0,1,1.05-.92C949.55,575.25,949.81,575,950,574.88Zm4.22,4.22a1.33,1.33,0,0,1,.87.5c.32.32.69.69,1.1,1.08a8.2,8.2,0,0,0,1.45,1.09,3.59,3.59,0,0,0,1.88.49,4.62,4.62,0,0,0,2.13-.43A3.51,3.51,0,0,0,963,580.7a4.37,4.37,0,0,0,.69-1.65,9.58,9.58,0,0,0,.2-2,14,14,0,0,0-.12-1.81c-.07-.61-.17-1.2-.29-1.76s-.26-1.09-.4-1.58-.27-.92-.38-1.27Z" transform="translate(-946.83 -422.34)"/><path d="M990.91,567c.89-1.18,1.91-2.46,3-3.82a45.58,45.58,0,0,1,3.49-3.8,23.65,23.65,0,0,1,3.6-2.93,6.29,6.29,0,0,1,3.38-1.17,3.47,3.47,0,0,1,.89.14,2.61,2.61,0,0,1,.94.55,3,3,0,0,1,.74,1.1,4.72,4.72,0,0,1,.3,1.83,15.34,15.34,0,0,1-.63,4.37c-.42,1.41-.87,2.83-1.37,4.24s-.94,2.87-1.35,4.34a17.5,17.5,0,0,0-.61,4.61,4.81,4.81,0,0,0,.4,2.11,1.17,1.17,0,0,0,1,.79,4.81,4.81,0,0,0,1.68-.33,11.15,11.15,0,0,0,1.78-.86A17,17,0,0,0,1010,577c.57-.45,1.1-.92,1.61-1.4a37.79,37.79,0,0,0,3.56-3.82l.56,8.76-1.5,1.15c-.61.47-1.28.95-2,1.47s-1.53,1-2.39,1.56a25.15,25.15,0,0,1-2.58,1.4,18.68,18.68,0,0,1-2.61,1,8.63,8.63,0,0,1-2.48.39,5.19,5.19,0,0,1-3.15-1,7.68,7.68,0,0,1-2.19-2.47,12.6,12.6,0,0,1-1.29-3.28,14.57,14.57,0,0,1-.42-3.36,11.07,11.07,0,0,1,.28-2.35,26,26,0,0,1,.69-2.62c.27-.88.58-1.73.92-2.57s.66-1.58,1-2.24.55-1.2.77-1.61a4.4,4.4,0,0,1,.43-.73l-.69-.1a12.13,12.13,0,0,0-1.9,1.85c-.89,1-1.89,2.23-3,3.74s-2.28,3.19-3.48,5.07a56.1,56.1,0,0,0-3.24,5.81c-.49,1-.88,1.85-1.19,2.59a13.22,13.22,0,0,1-.9,1.81,3.67,3.67,0,0,1-1,1.07,2.34,2.34,0,0,1-1.35.36,2.31,2.31,0,0,1-1.71-.62,4,4,0,0,1-1-1.66,10.14,10.14,0,0,1-.42-2.36c-.07-.88-.1-1.78-.1-2.7,0-1.47,0-3.4.05-5.78s.13-5,.31-7.93.43-6,.76-9.15.79-6.38,1.4-9.51a77.17,77.17,0,0,1,2.27-9,35.14,35.14,0,0,1,3.33-7.51,17.24,17.24,0,0,1,4.59-5.15,10,10,0,0,1,6.06-1.91,7,7,0,0,1,2.92.52,4.49,4.49,0,0,1,1.81,1.48,6,6,0,0,1,.94,2.29,15.2,15.2,0,0,1,.26,3,24.05,24.05,0,0,1-.69,5.4,56.88,56.88,0,0,1-1.83,6.16c-.75,2.13-1.62,4.29-2.58,6.47s-2,4.31-3,6.36-2,4-3,5.81l-2.58,4.81Zm2.93-20.35a77.49,77.49,0,0,0,2.81-8.5,23.07,23.07,0,0,0,.88-5.11c0-1.67-.22-2.5-.66-2.5s-1.42.93-2.54,2.8a68.93,68.93,0,0,0-4,8.13c-.38,1.21-.72,2.46-1,3.76s-.6,2.59-.86,3.87-.48,2.55-.69,3.79-.39,2.42-.54,3.54c-.38,2.61-.66,5.17-.86,7.68.59-1.39,1.24-2.89,1.94-4.52s1.4-3.23,2.08-4.82l1.93-4.52C992.94,548.88,993.44,547.67,993.84,546.69Z" transform="translate(-946.83 -422.34)"/><path d="M1024.44,587.53a12.32,12.32,0,0,1-5.42-1.12,11.11,11.11,0,0,1-3.87-3,12.78,12.78,0,0,1-2.32-4.38,17.36,17.36,0,0,1-.78-5.22,21.92,21.92,0,0,1,.37-3.91,22.92,22.92,0,0,1,1.1-4,20.32,20.32,0,0,1,1.86-3.77,15,15,0,0,1,2.62-3.17,12.17,12.17,0,0,1,3.36-2.17,10.25,10.25,0,0,1,4.13-.81,9.58,9.58,0,0,1,3.43.6,8.39,8.39,0,0,1,2.75,1.66,7.52,7.52,0,0,1,1.83,2.59,8.4,8.4,0,0,1,.66,3.39,9.17,9.17,0,0,1-1,4.08,14.88,14.88,0,0,1-2.78,3.86,20,20,0,0,1-4.23,3.23,22.58,22.58,0,0,1-5.32,2.2,10.42,10.42,0,0,0,1,1.49,4.58,4.58,0,0,0,1,.92,3.31,3.31,0,0,0,1,.46,4.82,4.82,0,0,0,1.17.13,12.16,12.16,0,0,0,4.16-.79,27.45,27.45,0,0,0,4.27-2,36.85,36.85,0,0,0,3.92-2.58,36,36,0,0,0,3.13-2.65l4.25,4.41a43,43,0,0,1-6.16,5.3c-1,.66-2,1.31-3,2a27.87,27.87,0,0,1-3.42,1.69,23.49,23.49,0,0,1-3.73,1.19A17,17,0,0,1,1024.44,587.53Zm-4.38-15.48a6.43,6.43,0,0,0,2.58-.61,11.5,11.5,0,0,0,2.61-1.56,11,11,0,0,0,2-2.08,3.68,3.68,0,0,0,.83-2.17,4.82,4.82,0,0,0-.55-2.44,1.55,1.55,0,0,0-1.33-1,5.15,5.15,0,0,0-2.42.53,5.25,5.25,0,0,0-1.68,1.37A7,7,0,0,0,1021,566a12.93,12.93,0,0,0-.62,2.16,15.93,15.93,0,0,0-.29,2.11Q1020.06,571.33,1020.06,572.05Z" transform="translate(-946.83 -422.34)"/><path d="M1046.58,587.53a4.58,4.58,0,0,1-3.31-1.56,13.68,13.68,0,0,1-2.67-4.2,28.52,28.52,0,0,1-1.78-6.11,40,40,0,0,1-.64-7.3,51,51,0,0,1,.43-6.37,71.71,71.71,0,0,1,1.25-7.1q.83-3.66,2-7.35a73.84,73.84,0,0,1,2.57-7.08,58.41,58.41,0,0,1,3.11-6.34A33.45,33.45,0,0,1,1051,529a16.23,16.23,0,0,1,3.85-3.44,7.59,7.59,0,0,1,4.08-1.25,4,4,0,0,1,2.34.64,4.41,4.41,0,0,1,1.45,1.69,8.26,8.26,0,0,1,.74,2.39,16.37,16.37,0,0,1,.22,2.72A29.42,29.42,0,0,1,1063,538a49.17,49.17,0,0,1-1.91,6.46q-1.2,3.24-2.78,6.5c-1.06,2.18-2.16,4.33-3.3,6.47s-2.29,4.25-3.44,6.33-2.24,4.1-3.25,6.08a7.1,7.1,0,0,0-.34.85c-.12.35-.24.73-.35,1.14s-.22.84-.33,1.3-.2.91-.26,1.35V575a7.7,7.7,0,0,0,.18,1.67,8.55,8.55,0,0,0,.45,1.45,4.54,4.54,0,0,0,.55,1,.81.81,0,0,0,.57.38,4.62,4.62,0,0,0,1.43-.27,11.77,11.77,0,0,0,1.71-.71,20.48,20.48,0,0,0,1.86-1c.64-.38,1.25-.77,1.85-1.17q2.07-1.38,4.35-3.19l2.7,6.92q-2.94,2.1-5.8,3.75c-.84.46-1.7.92-2.59,1.37s-1.78.85-2.68,1.2a21.11,21.11,0,0,1-2.64.84A10.07,10.07,0,0,1,1046.58,587.53Zm0-26.35c1-1.76,2-3.73,3.15-5.93s2.15-4.46,3.14-6.79a73.49,73.49,0,0,0,2.57-7,32.47,32.47,0,0,0,1.39-6.48c0-.63,0-1.18,0-1.63s-.14-.67-.32-.67a3,3,0,0,0-2.06,1.23,16.74,16.74,0,0,0-2.2,3.35,38,38,0,0,0-2.11,4.91q-1,2.79-1.8,6a64.38,64.38,0,0,0-1.25,6.5A47.25,47.25,0,0,0,1046.61,561.18Z" transform="translate(-946.83 -422.34)"/><path d="M1065.52,587.53a4.58,4.58,0,0,1-3.31-1.56,13.68,13.68,0,0,1-2.67-4.2,28.52,28.52,0,0,1-1.78-6.11,40,40,0,0,1-.64-7.3,51,51,0,0,1,.43-6.37,71.71,71.71,0,0,1,1.25-7.1q.83-3.66,2-7.35a73.84,73.84,0,0,1,2.57-7.08,58.41,58.41,0,0,1,3.11-6.34A34.17,34.17,0,0,1,1070,529a16.42,16.42,0,0,1,3.85-3.44,7.6,7.6,0,0,1,4.09-1.25,4,4,0,0,1,2.34.64,4.47,4.47,0,0,1,1.44,1.69,8.26,8.26,0,0,1,.75,2.39,17.51,17.51,0,0,1,.21,2.72,29.42,29.42,0,0,1-.71,6.31,49.17,49.17,0,0,1-1.91,6.46q-1.2,3.24-2.78,6.5c-1.06,2.18-2.16,4.33-3.3,6.47s-2.29,4.25-3.44,6.33-2.23,4.1-3.24,6.08a6.93,6.93,0,0,0-.35.85c-.12.35-.24.73-.35,1.14s-.22.84-.33,1.3-.19.91-.26,1.35V575a7.7,7.7,0,0,0,.18,1.67,8.55,8.55,0,0,0,.45,1.45,4.16,4.16,0,0,0,.56,1,.78.78,0,0,0,.56.38,4.62,4.62,0,0,0,1.43-.27,11.77,11.77,0,0,0,1.71-.71,19.22,19.22,0,0,0,1.86-1c.64-.38,1.26-.77,1.85-1.17q2.07-1.38,4.35-3.19l2.7,6.92q-2.94,2.1-5.8,3.75c-.83.46-1.7.92-2.58,1.37s-1.79.85-2.69,1.2a21.11,21.11,0,0,1-2.64.84A10,10,0,0,1,1065.52,587.53Zm0-26.35c1-1.76,2-3.73,3.15-5.93s2.16-4.46,3.14-6.79a73.49,73.49,0,0,0,2.57-7,32.47,32.47,0,0,0,1.39-6.48c0-.63,0-1.18,0-1.63s-.14-.67-.31-.67a3,3,0,0,0-2.06,1.23,16.73,16.73,0,0,0-2.21,3.35,38,38,0,0,0-2.11,4.91,59.89,59.89,0,0,0-1.79,6,61.72,61.72,0,0,0-1.26,6.5A48.86,48.86,0,0,0,1065.55,561.18Z" transform="translate(-946.83 -422.34)"/><path d="M1095,581.24c0,.09,0,.31,0,.66a6.37,6.37,0,0,1-.21,1.22,8.24,8.24,0,0,1-.56,1.47,5.1,5.1,0,0,1-1.07,1.43,5.5,5.5,0,0,1-1.75,1.09,7,7,0,0,1-2.57.42,7.18,7.18,0,0,1-2.2-.31,4.63,4.63,0,0,1-1.7-1,4.31,4.31,0,0,1-1.1-1.65,6.49,6.49,0,0,1-.4-2.42,7.91,7.91,0,0,1,.35-2.32,5.73,5.73,0,0,1,1.07-2,5.12,5.12,0,0,1,1.88-1.42,6.52,6.52,0,0,1,2.73-.52,5.71,5.71,0,0,1,4.15,1.38A5.29,5.29,0,0,1,1095,581.24Z" transform="translate(-946.83 -422.34)"/><path d="M1096.09,587.53q0-.53.15-1.86c.1-.89.23-2,.39-3.23s.37-2.66.61-4.19.51-3.12.79-4.73.6-3.22.93-4.81.67-3.09,1-4.48.71-2.63,1.07-3.71a13.55,13.55,0,0,1,1.07-2.5,3.82,3.82,0,0,1,1.09-1.19,4.42,4.42,0,0,1,1.36-.62,7.17,7.17,0,0,1,1.55-.25c.54,0,1.07-.05,1.6-.05a1.92,1.92,0,0,1,1.66.69,2.42,2.42,0,0,1,.51,1.45,6.88,6.88,0,0,1-.18,1.25c-.12.57-.27,1.19-.44,1.85s-.35,1.28-.53,1.88-.31,1-.39,1.31l-1.85,5.27c1.23-.19,2.42-.33,3.56-.41s2.39-.22,3.75-.43a36.35,36.35,0,0,0,4.62-1,48.92,48.92,0,0,0,6.12-2.32v6.32a22.25,22.25,0,0,1-4.36,1.83,34.73,34.73,0,0,1-4,.94,26.14,26.14,0,0,1-4,.39,46.33,46.33,0,0,1,1.45,4.45c.37,1.32.7,2.79,1,4.4a26.48,26.48,0,0,1,.45,4.86c0,.28,0,.95-.09,2s-.18,2.27-.39,3.67a35,35,0,0,1-1,4.47,18,18,0,0,1-1.85,4.31,10.65,10.65,0,0,1-2.93,3.25,7.14,7.14,0,0,1-4.3,1.28,5.93,5.93,0,0,1-3.92-1.35,9.39,9.39,0,0,1-2.61-3.92,25.07,25.07,0,0,1-1.45-6.29A71.14,71.14,0,0,1,1096.09,587.53Zm7.31-40.88a5.34,5.34,0,0,1,.33-1.71,5.4,5.4,0,0,1,1.07-1.8,6,6,0,0,1,2-1.41,7.17,7.17,0,0,1,3.08-.58,8.57,8.57,0,0,1,2.18.27,5.13,5.13,0,0,1,1.77.8,3.8,3.8,0,0,1,1.21,1.44,4.71,4.71,0,0,1,.44,2.1,6.69,6.69,0,0,1-.36,2.18,5.16,5.16,0,0,1-1.15,1.88,6.14,6.14,0,0,1-2,1.33,7.34,7.34,0,0,1-2.88.51,5.88,5.88,0,0,1-4.28-1.37A4.89,4.89,0,0,1,1103.4,546.65Zm2.11,26.16q-.85,5.1-1.45,10.31a96.11,96.11,0,0,0-.59,10.74,16.67,16.67,0,0,0,.23,3,8.46,8.46,0,0,0,.58,2,3.39,3.39,0,0,0,.69,1,1,1,0,0,0,.61.31,1.94,1.94,0,0,0,1.73-1.18,9.79,9.79,0,0,0,1-2.93,28.47,28.47,0,0,0,.4-3.78c0-1.35.08-2.58.08-3.7a17.58,17.58,0,0,0-.15-2.16q-.15-1.2-.36-2.49c-.14-.85-.31-1.72-.51-2.6s-.4-1.73-.59-2.57C1106.64,576.84,1106.11,574.85,1105.51,572.81Z" transform="translate(-946.83 -422.34)"/><path d="M1121.39,574.88c1.23-1,2.23-1.93,3-2.63s1.43-1.35,2-1.93a21.59,21.59,0,0,0,1.5-1.76l1.6-2.11c.62-.81,1.36-1.8,2.24-3s2-2.64,3.43-4.4a11.13,11.13,0,0,1,.95-1.15,7.58,7.58,0,0,1,1.17-1,6.53,6.53,0,0,1,1.42-.72,4.94,4.94,0,0,1,1.73-.28,6.82,6.82,0,0,1,2.44.35,3,3,0,0,1,1.25.84,2.08,2.08,0,0,1,.46,1,8.92,8.92,0,0,1,.06.94,3.24,3.24,0,0,1-.62,1.75,18.78,18.78,0,0,1-1.38,1.84c-.51.6-1,1.14-1.44,1.63a3.36,3.36,0,0,0-.77,1.11,10.62,10.62,0,0,0,.15,1.86,13.19,13.19,0,0,0,.39,1.65q.25.8.51,1.71c.18.6.35,1.3.51,2.09a24.31,24.31,0,0,1,.4,2.73q.15,1.56.15,3.66a19.55,19.55,0,0,1,2.55-1.43l2.85-1.34c1-.46,2-1,3-1.53a24.73,24.73,0,0,0,3.14-2l0,7.38a30.57,30.57,0,0,1-4.72,3,46.09,46.09,0,0,1-5.64,2.44,42.25,42.25,0,0,1-6,1.66,28.56,28.56,0,0,1-5.71.61,17.32,17.32,0,0,1-3.63-.36,9.36,9.36,0,0,1-3-1.14,6.19,6.19,0,0,1-2-2,6.77,6.77,0,0,1-1-3,7.38,7.38,0,0,1-.91.13l-.87,0q-.52,0-1,0a1.68,1.68,0,0,1-.79-.25,1.48,1.48,0,0,1-.53-.69,3.81,3.81,0,0,1-.19-1.37,2.91,2.91,0,0,1,.39-1.47,6.47,6.47,0,0,1,.92-1.2,10.69,10.69,0,0,1,1.06-.92C1121,575.25,1121.21,575,1121.39,574.88Zm4.22,4.22a1.33,1.33,0,0,1,.87.5c.32.32.69.69,1.1,1.08a8.2,8.2,0,0,0,1.45,1.09,3.59,3.59,0,0,0,1.88.49,4.62,4.62,0,0,0,2.13-.43,3.51,3.51,0,0,0,1.33-1.13,4.37,4.37,0,0,0,.69-1.65,9.58,9.58,0,0,0,.2-2,14,14,0,0,0-.12-1.81c-.07-.61-.17-1.2-.29-1.76s-.26-1.09-.4-1.58-.27-.92-.38-1.27Z" transform="translate(-946.83 -422.34)"/></g></svg>